/* XPM */
static const char * delete_xpm[] = {
"16 15 40 1",
" 	c None",
".	c #D64F49",
"+	c #949494",
"@	c #939393",
"#	c #929292",
"$	c #C14741",
"%	c #D8D8D8",
"&	c #FFFFFF",
"*	c #FEFEFE",
"=	c #FBFBFB",
"-	c #F6F6F6",
";	c #919191",
">	c #FDFDFD",
",	c #F2F2F2",
"'	c #F5F5F5",
")	c #EDEDED",
"!	c #F3F3F3",
"~	c #ECECEC",
"{	c #E8E8E8",
"]	c #E7E7E7",
"^	c #E2E2E2",
"/	c #DEDEDE",
"(	c #DBDBDB",
"_	c #E3E3E3",
":	c #F7F7F7",
"<	c #F1F1F1",
"[	c #E9E9E9",
"}	c #E0E0E0",
"|	c #DCDCDC",
"1	c #DADADA",
"2	c #D6D6D6",
"3	c #E5E5E5",
"4	c #CFCFCF",
"5	c #8D8D8D",
"6	c #8A8A8A",
"7	c #888888",
"8	c #878787",
"9	c #868686",
"0	c #8C8C8C",
"a	c #8B8B8B",
"        .     . ",
"  ++@##...#  .$$",
" +%&&&&&...#.$$ ",
"+%&&&&&&&...$$  ",
"@&&&&&&&&&...#  ",
"#&&&&&&&&.$...# ",
"#&&&&*==.$$-.$$ ",
";&&&>-,.$$')&$$$",
";&&=!~{]$^/(_=$ ",
"+%:<[}|(1%23,%+ ",
" +%&&&&4&&&&%+  ",
"  +555&&6789+   ",
"     0&6        ",
"     a6         ",
"     6          "};
