/* XPM */
static const char * dir_down_xpm[] = {
"16 15 30 1",
" 	c None",
".	c #376485",
"+	c #305F81",
"@	c #9AEA53",
"#	c #8DA0B9",
"$	c #6A89A2",
"%	c #7F99B4",
"&	c #5A809C",
"*	c #467291",
"=	c #446A8C",
"-	c #B3BFD1",
";	c #BBC4D6",
">	c #C2CBDB",
",	c #CAD6E1",
"'	c #D1D9E5",
")	c #DCE2EA",
"!	c #E1E6EE",
"~	c #EAEDF3",
"{	c #EEF1F3",
"]	c #F5F6F7",
"^	c #F8F9FA",
"/	c #A8B6CA",
"(	c #839CB5",
"_	c #9BACC2",
":	c #94A5BD",
"<	c #547897",
"[	c #7F97B0",
"}	c #215579",
"|	c #65839D",
"1	c #7A90AC",
"        .++..   ",
"        .@@@.   ",
"++++    +@@@+   ",
"+##$+++++@@@++  ",
"+######.@@@@@+  ",
"+####%##.@@@+&  ",
"+########.@.#&  ",
"+#*++++++++++++=",
"+#=-;>,')!~{]^{+",
"+$+/-;>,')!~{]&+",
"++(_/-;>,')!~{+ ",
"+.#:_/-;>,')!~+ ",
"+<[#:_/-;>,')&& ",
"}|1[#:_/-;>,'+  ",
"}+++++++++++++  "
};
