/* XPM */
static const char * ico_pdf_xpm[] = {
"32 31 256 2",
"  	c None",
". 	c #FFFFFF",
"+ 	c #FFFF00",
"@ 	c #FF00FF",
"# 	c #FF0000",
"$ 	c #00FFFF",
"% 	c #00FF00",
"& 	c #0000FF",
"* 	c #000000",
"= 	c #D2D2D2",
"- 	c #FF0004",
"; 	c #FF0001",
"> 	c #E40002",
", 	c #EC0106",
"' 	c #FE0308",
") 	c #F20409",
"! 	c #FF0509",
"~ 	c #FC0509",
"{ 	c #DF0509",
"] 	c #F9060A",
"^ 	c #EC060B",
"/ 	c #FF070A",
"( 	c #E7080C",
"_ 	c #FC090D",
": 	c #EE090D",
"< 	c #F50A0D",
"[ 	c #FF0C11",
"} 	c #F30C11",
"| 	c #FF1216",
"1 	c #FF151A",
"2 	c #FF1D20",
"3 	c #FF1F23",
"4 	c #FF2326",
"5 	c #FF252A",
"6 	c #FF2B2E",
"7 	c #FF2E31",
"8 	c #FF3134",
"9 	c #FF3539",
"0 	c #FF3C3F",
"a 	c #FF3F42",
"b 	c #FF4446",
"c 	c #FF474A",
"d 	c #FF4D4F",
"e 	c #FD5254",
"f 	c #FF5B5D",
"g 	c #F3585A",
"h 	c #F65D5E",
"i 	c #FF6567",
"j 	c #FF6B6E",
"k 	c #FD7475",
"l 	c #FF8082",
"m 	c #FF8284",
"n 	c #F57E7F",
"o 	c #FF8587",
"p 	c #C46A6B",
"q 	c #F48B8C",
"r 	c #EC8788",
"s 	c #FD9394",
"t 	c #F68F90",
"u 	c #FFA2A4",
"v 	c #F49C9D",
"w 	c #FFA6A8",
"x 	c #FFACAD",
"y 	c #EFA2A3",
"z 	c #FEAEAF",
"A 	c #F7C4C5",
"B 	c #FF0107",
"C 	c #FB050E",
"D 	c #FF070D",
"E 	c #FF181F",
"F 	c #FF1A21",
"G 	c #CB5356",
"H 	c #E87C80",
"I 	c #FF898C",
"J 	c #E69698",
"K 	c #F3A5A7",
"L 	c #FFAFB1",
"M 	c #FDB3B5",
"N 	c #F3B1B3",
"O 	c #F5CBCC",
"P 	c #FBD1D2",
"Q 	c #F4D7D8",
"R 	c #F6BEC1",
"S 	c #E4BBBD",
"T 	c #EBC3C6",
"U 	c #FBF4F5",
"V 	c #FFFEFF",
"W 	c #FEFDFE",
"X 	c #FCFBFC",
"Y 	c #FAF9FA",
"Z 	c #F4F3F4",
"` 	c #E1E0E2",
" .	c #DCDBDD",
"..	c #FBFAFE",
"+.	c #BBBBC5",
"@.	c #84848B",
"#.	c #4C4C50",
"$.	c #75757A",
"%.	c #323234",
"&.	c #CFCFD6",
"*.	c #C5C5CC",
"=.	c #ADADB3",
"-.	c #535356",
";.	c #5D5D60",
">.	c #464648",
",.	c #E9E9EF",
"'.	c #E1E1E7",
").	c #DFDFE5",
"!.	c #9C9CA0",
"~.	c #49494B",
"{.	c #BEBEC2",
"].	c #7E7E81",
"^.	c #636365",
"/.	c #E4E4E8",
"(.	c #D9D9DD",
"_.	c #D1D1D5",
":.	c #6D6D6F",
"<.	c #3D3D3E",
"[.	c #CACACD",
"}.	c #A6A6A8",
"|.	c #4F4F50",
"1.	c #D7D7D9",
"2.	c #BDBDBF",
"3.	c #626263",
"4.	c #FDFDFE",
"5.	c #F5F5F6",
"6.	c #F3F3F4",
"7.	c #F1F1F2",
"8.	c #EDEDEE",
"9.	c #E9E9EA",
"0.	c #E4E4E5",
"a.	c #DCDCDD",
"b.	c #D9D9DA",
"c.	c #C5C5C6",
"d.	c #8E8E8F",
"e.	c #B1B2B9",
"f.	c #B1B3BC",
"g.	c #B2B5BF",
"h.	c #96979A",
"i.	c #FBFCFF",
"j.	c #F5F6F9",
"k.	c #BBBDC2",
"l.	c #AFB3BB",
"m.	c #B8BBC1",
"n.	c #67686A",
"o.	c #A2A3A5",
"p.	c #2B2C2D",
"q.	c #B2B5B8",
"r.	c #F1F2F3",
"s.	c #E6E7E8",
"t.	c #DFE0E1",
"u.	c #E9ECEE",
"v.	c #F3F5F6",
"w.	c #F9FCFD",
"x.	c #EDF2F3",
"y.	c #F1F7F8",
"z.	c #C9CFCF",
"A.	c #FBFFFF",
"B.	c #F7FAFA",
"C.	c #C2C5C5",
"D.	c #FBFDFD",
"E.	c #F9FBFB",
"F.	c #FDFEFE",
"G.	c #F5F6F6",
"H.	c #EDEEEE",
"I.	c #E5E6E6",
"J.	c #C3C4C4",
"K.	c #B3B4B4",
"L.	c #939494",
"M.	c #CFD6D3",
"N.	c #E6E8E7",
"O.	c #FBFCFB",
"P.	c #F7F8F7",
"Q.	c #F5F6F5",
"R.	c #F3F4F3",
"S.	c #F1F2F1",
"T.	c #DBDCDB",
"U.	c #C2C3C2",
"V.	c #4C4C4B",
"W.	c #414140",
"X.	c #D6D6D4",
"Y.	c #CECECC",
"Z.	c #FDFDFC",
"`.	c #FCFCFB",
" +	c #FAFAF9",
".+	c #F9F9F8",
"++	c #F6F6F5",
"@+	c #F5F5F4",
"#+	c #F2F2F1",
"$+	c #EEEEED",
"%+	c #E8E8E7",
"&+	c #E4E4E3",
"*+	c #D4D4D3",
"=+	c #D3D3D2",
"-+	c #C4C4C3",
";+	c #848483",
">+	c #818180",
",+	c #F5F0EF",
"'+	c #4D0000",
")+	c #490000",
"!+	c #450000",
"~+	c #430000",
"{+	c #400000",
"]+	c #3E0000",
"^+	c #3D0000",
"/+	c #F71D1D",
"(+	c #F13130",
"_+	c #F43F3E",
":+	c #F24746",
"<+	c #F35353",
"[+	c #F76B6B",
"}+	c #F37373",
"|+	c #FF7F7F",
"1+	c #F7A1A1",
"2+	c #F4ACAC",
"3+	c #F9E8E8",
"4+	c #EEE2E2",
"5+	c #F5F3F3",
"6+	c #FEFDFD",
"7+	c #FCFBFB",
"8+	c #FAF9F9",
"9+	c #EDECEC",
"0+	c #FEFEFE",
"a+	c #FBFBFB",
"b+	c #F7F7F7",
"c+	c #F6F6F6",
"d+	c #F3F3F3",
"e+	c #F1F1F1",
"f+	c #F0F0F0",
"g+	c #EEEEEE",
"h+	c #EBEBEB",
"i+	c #EAEAEA",
"j+	c #E8E8E8",
"k+	c #E6E6E6",
"l+	c #DFDFDF",
"m+	c #DBDBDB",
"n+	c #D7D7D7",
"o+	c #D4D4D4",
"p+	c #D3D3D3",
"q+	c #D1D1D1",
"r+	c #CECECE",
"s+	c #CDCDCD",
"t+	c #C9C9C9",
"u+	c #C0C0C0",
"v+	c #BFBFBF",
"w+	c #BDBDBD",
"x+	c #B0B0B0",
"y+	c #AAAAAA",
"z+	c #9C9C9C",
"A+	c #838383",
"B+	c #666666",
"C+	c #4B4B4B",
"D+	c #4A4A4A",
"E+	c #494949",
"F+	c #474747",
"G+	c #454545",
"                M.g.l.f.e.m.m.k.m.m.g.l.e.U.y+k+                ",
"                z.j+j+j+j+j+k+0.l+n+r+c.v+w+o.r+m+              ",
"u M L z x w u u I I o o o m l |+l l l m l G q.v+f+m+            ",
"L j j f e 0 9 6 5 3 2 2 3 3 E | | | 1 1 | {+K.x+. h+l+          ",
"L f e b 6 . . s # . . . i # . . . B ! _ - ~+v+o.. . h+&+        ",
"L d c 9 4 . # . # . # # . ; . # ; / [ } ] ~+q+z+. . . h+j+      ",
"x b a 7 F . . s # . / [ . # . . z C : : ) !+l+x+. . . . e+f+    ",
"x a 0 6 2 . [ | 1 . [ ' . # . # ~ < : ( , ~+i+u+;+A+>+z+t+s.d+  ",
"w 9 8 9 7 . 7 7 3 . . . j ; . - ~ ) ^ { > !+@+T.2.x+}.L.A+d.s+  ",
"w a d d c 0 9 8 5 1 [ [ D / B B ! ] ) > > !+a+R.%+m+o+c.w+o.o.0.",
"p !+)+'+'+'+)+)+~+{+{+]+]+]+^+^+]+]+{+{+{+{+. a+Q.S.j+` n+r+x+Y.",
"                -+0+V 6+. V 0+6+. V n 3+. 0+V V O.B.5+f+k+a.r+r+",
"                J.6+6+4.0+4.0+0+Z.w.:+O 0+6+F.W 4.a+b+d+H.&+b.=+",
"                c.Z.6+D.Z.D.Z.4.Z.D.g A D.X Z.Z.Z.E.Y G.7.i+&+q+",
"                -+7+7+`.X O.X O.X U (+n D.O.X O.a+E.b+++#+H.s.= ",
"                c.a+O.E.a+Y a+a+a+M q [+U a+7+a+Y B..+@+#+g+9.= ",
"                -+Y  +.+Y E.8+8+8+<+U O h E. + +j.P.Q.@+e+8.s.= ",
"                -+b+.+B..+.+.+b+3+<+A.A.}+s w.E.B.G.@+r.7.9+i+= ",
"                -+b+U b+b+b+P.b+h A A.A.w.[+d 2+R R N T u.h+s.= ",
"                -+c+5.5.c+c+G.N <+..P 1+u v n h /+<+q H J i+s.= ",
"                U.@+Z @+Z 6.,+_+N A P ,+@+5.5.G.4+y r r J s.I.= ",
"                -+Z 6.d+v.j.q q c+Y a+E.E.8+B.j.y.y.x.S H N.I.= ",
"                U.Z 7.v.R 2+<+5+Q.h.2.i.F.|.V j.1.n.#+$+j+k+` *+",
"                J.S.R.K N }+4+S..+%.B+. ).<.. ).,.#.f+9+i+0.t.o+",
"                C.f+Q n t K f+f+j.B+h._.p.B+o.%.=.~.<.{.;.-.1.o+",
"                C.g+4+q v f+f+f+b.^.L.:./.:.n.(.>.!.{.%.$.<.(.X.",
"                u+f+8.g+g+f+g+7.}.^.n.-.'.;.^.&.W.d.=.p.].*.1.o+",
"                C.g+g+g+g+g+g+c+>+9.[.A+^.].o.#.=.-.;.+.;.@.1.o+",
"                -+g+g+g+g+g+g+f+e+e+e+e+f+f+8.8.,.9.k+0.). .a.p+",
"                q+3.W.G+G+G+G+G+F+F+E+E+E+E+D+D+C+V.V.V.V.F+B+a.",
"                  b.q+= = = = = = = = =+p+p+p+p+p+*+o+o+p+= n+Z."};
