/* XPM */
static const char * nocheck_xpm[] = {
/* columns rows colors chars-per-pixel */
"13 12 4 1",
"* c #AA0000",
"X c Black",
"  c White",
"- c None",
/* pixels */
"XXXXXXXXXXXX-",
"X          X-",
"X          X-",
"X          X-",
"X          X-",
"X          X-",
"X          X-",
"X          X-",
"X          X-",
"X          X-",
"X          X-",
"XXXXXXXXXXXX-"
};
