/* XPM */
static const char * start_xpm[] = {
"16 16 121 2",
"  	c None",
". 	c #254BA3",
"+ 	c #264CA5",
"@ 	c #264EA7",
"# 	c #264DA6",
"$ 	c #628BDE",
"% 	c #4670C7",
"& 	c #2B56AF",
"* 	c #2750AA",
"= 	c #5580DA",
"- 	c #4674D6",
"; 	c #4F7BD7",
"> 	c #3663BF",
", 	c #2A58B3",
"' 	c #2853AD",
") 	c #527EDB",
"! 	c #3568D1",
"~ 	c #386BD3",
"{ 	c #4576DA",
"] 	c #4071D4",
"^ 	c #2E5FBD",
"/ 	c #2B5CB9",
"( 	c #2955B0",
"_ 	c #4F7DDB",
": 	c #366AD3",
"< 	c #376CD4",
"[ 	c #386ED5",
"} 	c #3B71D8",
"| 	c #457ADF",
"1 	c #3C70CF",
"2 	c #2F61BF",
"3 	c #4C7CDC",
"4 	c #386FD6",
"5 	c #3971D7",
"6 	c #3A73D8",
"7 	c #3B75D9",
"8 	c #457DDE",
"9 	c #4D84DF",
"0 	c #376DCB",
"a 	c #2D61BF",
"b 	c #2A5AB6",
"c 	c #487ADC",
"d 	c #3A72D7",
"e 	c #3974D9",
"f 	c #3471D9",
"g 	c #3271D9",
"h 	c #3070DA",
"i 	c #3474DC",
"j 	c #4784E1",
"k 	c #4C85DC",
"l 	c #3368C5",
"m 	c #2B5CB8",
"n 	c #4578DD",
"o 	c #3770D7",
"p 	c #2E6BD6",
"q 	c #2D6CD8",
"r 	c #3171DB",
"s 	c #3476DD",
"t 	c #3679DE",
"u 	c #377ADF",
"v 	c #4081E0",
"w 	c #5894E5",
"x 	c #3F76CF",
"y 	c #2C5DBB",
"z 	c #3A71DC",
"A 	c #2967D5",
"B 	c #2D6DD8",
"C 	c #3273DB",
"D 	c #3A7EE1",
"E 	c #3D82E3",
"F 	c #3E83E3",
"G 	c #488BE5",
"H 	c #5996E6",
"I 	c #4079D1",
"J 	c #2C5FBC",
"K 	c #326CDB",
"L 	c #2B6AD7",
"M 	c #3172DB",
"N 	c #3B80E2",
"O 	c #4086E5",
"P 	c #448BE7",
"Q 	c #4A91E9",
"R 	c #60A2EE",
"S 	c #5694E4",
"T 	c #3771CE",
"U 	c #2F67C6",
"V 	c #2D60BE",
"W 	c #3771DC",
"X 	c #2E6ED9",
"Y 	c #3477DD",
"Z 	c #3A7FE1",
"` 	c #4187E5",
" .	c #4890E9",
"..	c #5BA1EF",
"+.	c #67A8EF",
"@.	c #4280DB",
"#.	c #326ED0",
"$.	c #2D60BF",
"%.	c #3B76DE",
"&.	c #3071DA",
"*.	c #4F94EA",
"=.	c #65A7F0",
"-.	c #5395E8",
";.	c #3576D9",
">.	c #3F7ADF",
",.	c #3D7FE1",
"'.	c #5999EA",
").	c #5897E7",
"!.	c #3C7CDC",
"~.	c #3577DC",
"{.	c #427EDF",
"].	c #4381E0",
"^.	c #5491E5",
"/.	c #3E7AD6",
"(.	c #3370D3",
"_.	c #2D5FBD",
":.	c #4C85E0",
"<.	c #427BD5",
"[.	c #3069C9",
"}.	c #2D61C0",
"|.	c #2E64C3",
"  . + @                         ",
"  # $ % &                       ",
"  * = - ; > ,                   ",
"  ' ) ! ~ { ] ^ /               ",
"  ( _ : < [ } | 1 2             ",
"  , 3 < 4 5 6 7 8 9 0 a         ",
"  b c 4 d e f g h i j k l a     ",
"  m n o p q r s t u u v w x     ",
"  y z A B C t D E F F G H I     ",
"  J K L M t N O P Q R S T U     ",
"  V W X Y Z `  ...+.@.#.        ",
"  $.%.&.u F *.=.-.;.            ",
"  a >.C ,.'.).!.~.              ",
"  V {.].^./.(.                  ",
"  _.:.<.[.                      ",
"  J }.|.                        "};
