/* XPM */
static const char * add_xpm[] = {
"15 15 3 1",
"X c Black",
"0 c White",
"  c None",
"               ",
"     XXXXX     ",
"     X   X     ",
"     X   X     ",
"     X   X     ",
" XXXXX   XXXXX ",
" X           X ",
" X           X ",
" X           X ",
" XXXXX   XXXXX ",
"     X   X     ",
"     X   X     ",
"     X   X     ",
"     XXXXX     ",
"               "};
