/* XPM */
static const char * home_xpm[] = {
"32 32 594 2",
"  	c None",
". 	c #A4492E",
"+ 	c #B15F34",
"@ 	c #AF633D",
"# 	c #A65339",
"$ 	c #AE5731",
"% 	c #C07438",
"& 	c #C67B3D",
"* 	c #C2773A",
"= 	c #BD6F37",
"- 	c #B96534",
"; 	c #A35D4A",
"> 	c #A7442B",
", 	c #BF6735",
"' 	c #B96437",
") 	c #CA7F41",
"! 	c #C67B3E",
"~ 	c #BD6E37",
"{ 	c #BC6C36",
"] 	c #BF7238",
"^ 	c #B66033",
"/ 	c #995444",
"( 	c #982F27",
"_ 	c #D58E48",
": 	c #E29943",
"< 	c #DC903F",
"[ 	c #BE6636",
"} 	c #BF6E3C",
"| 	c #C3783B",
"1 	c #C4793C",
"2 	c #C77C3F",
"3 	c #BF7138",
"4 	c #BF7338",
"5 	c #B76939",
"6 	c #875B64",
"7 	c #B96B43",
"8 	c #E0B264",
"9 	c #B9AE5D",
"0 	c #E0AA5A",
"a 	c #E29E4B",
"b 	c #D2813C",
"c 	c #BD6737",
"d 	c #C5763F",
"e 	c #CA7F40",
"f 	c #C07539",
"g 	c #BF7237",
"h 	c #B3653A",
"i 	c #8E5669",
"j 	c #9C372A",
"k 	c #DDA65E",
"l 	c #97B063",
"m 	c #8CD1A7",
"n 	c #86C083",
"o 	c #BDAF60",
"p 	c #E29A45",
"q 	c #E19641",
"r 	c #CF7D3B",
"s 	c #BD6738",
"t 	c #BA6A36",
"u 	c #C1763A",
"v 	c #CD783F",
"w 	c #E26230",
"x 	c #EF6E2E",
"y 	c #C14737",
"z 	c #C07648",
"A 	c #D7B162",
"B 	c #7BC48F",
"C 	c #C9E6D3",
"D 	c #CEE8D5",
"E 	c #A2D7B2",
"F 	c #92A95D",
"G 	c #D89741",
"H 	c #E19741",
"I 	c #CE7B3A",
"J 	c #B65F33",
"K 	c #C26D39",
"L 	c #EB6831",
"M 	c #F38F33",
"N 	c #F38F34",
"O 	c #EE6E30",
"P 	c #CA492D",
"Q 	c #A4523B",
"R 	c #A13F2E",
"S 	c #DFAB61",
"T 	c #9EB163",
"U 	c #AEDDC2",
"V 	c #C8E6D3",
"W 	c #C7E6D3",
"X 	c #C6E6D0",
"Y 	c #8AC18B",
"Z 	c #AB9D4A",
"` 	c #E09741",
" .	c #E29842",
"..	c #CA7238",
"+.	c #C9432B",
"@.	c #EC6E2F",
"#.	c #EB692F",
"$.	c #C56F2A",
"%.	c #F3C506",
"&.	c #BD7C26",
"*.	c #B86233",
"=.	c #94443C",
"-.	c #C8834E",
";.	c #DEB263",
">.	c #7ABF83",
",.	c #C7E5D2",
"'.	c #D2E9D7",
").	c #D5EBD9",
"!.	c #B7E0C4",
"~.	c #8CBD81",
"{.	c #AFAE60",
"].	c #E0A959",
"^.	c #DE9340",
"/.	c #C05D32",
"(.	c #B95332",
"_.	c #BB7134",
":.	c #C68724",
"<.	c #AF6134",
"[.	c #BA8B83",
"}.	c #BEA9AF",
"|.	c #97707F",
"1.	c #AA5036",
"2.	c #E2B063",
"3.	c #97B266",
"4.	c #B6E0C4",
"5.	c #D0E9D6",
"6.	c #CCE7D5",
"7.	c #D4EAD8",
"8.	c #D4EBD8",
"9.	c #DCEDDF",
"0.	c #88D0A6",
"a.	c #A0AB5A",
"b.	c #E27E43",
"c.	c #E67E45",
"d.	c #E0813C",
"e.	c #D1803B",
"f.	c #B15730",
"g.	c #A9593A",
"h.	c #9A96B3",
"i.	c #BCBDBD",
"j.	c #DDDEDE",
"k.	c #C0C1C3",
"l.	c #A48493",
"m.	c #D9A56F",
"n.	c #BDB76E",
"o.	c #98D4AC",
"p.	c #DBEDDE",
"q.	c #CAE6D4",
"r.	c #D3EAD7",
"s.	c #C9E7D1",
"t.	c #65B067",
"u.	c #D98440",
"v.	c #F6B35F",
"w.	c #FED56E",
"x.	c #E67043",
"y.	c #E19340",
"z.	c #CD7B39",
"A.	c #8E6A81",
"B.	c #C3C4C5",
"C.	c #B4B7BD",
"D.	c #C3C4C4",
"E.	c #B2B4B6",
"F.	c #B89096",
"G.	c #BA6C47",
"H.	c #F0D2A5",
"I.	c #71B771",
"J.	c #DFF0E4",
"K.	c #DFEFE2",
"L.	c #C6E5D1",
"M.	c #6ABD82",
"N.	c #C19441",
"O.	c #EA8A4B",
"P.	c #FED56D",
"Q.	c #F5AD5D",
"R.	c #E07C3C",
"S.	c #E09641",
"T.	c #A55D49",
"U.	c #9BA6B1",
"V.	c #81B3DC",
"W.	c #B0D0EA",
"X.	c #D0D1D1",
"Y.	c #C6A7AD",
"Z.	c #8E7A8C",
"`.	c #AF644B",
" +	c #E6C096",
".+	c #B6BE7D",
"++	c #85C48B",
"@+	c #C5E6D0",
"#+	c #D7EBDB",
"$+	c #CDE7D5",
"%+	c #C8E5D3",
"&+	c #7BC999",
"*+	c #A69B45",
"=+	c #E2793E",
"-+	c #FAC467",
";+	c #FAC367",
">+	c #E27741",
",+	c #C2703B",
"'+	c #CCBAC3",
")+	c #82A3CC",
"!+	c #6890C9",
"~+	c #A0CBE8",
"{+	c #CFD3D6",
"]+	c #D1BCBF",
"^+	c #935F66",
"/+	c #5A65A4",
"(+	c #8D7688",
"_+	c #B97A58",
":+	c #D9AA60",
"<+	c #9AB265",
"[+	c #8DCD9E",
"}+	c #D0E9D5",
"|+	c #96D5B0",
"1+	c #89AE5F",
"2+	c #E19253",
"3+	c #F4A75B",
"4+	c #FDD26C",
"5+	c #E7814C",
"6+	c #E19C4A",
"7+	c #D1813B",
"8+	c #B99295",
"9+	c #A0B6CF",
"0+	c #C5DEF3",
"a+	c #BFD8F0",
"b+	c #7599CD",
"c+	c #98C6E6",
"d+	c #D5DEE6",
"e+	c #D6CBCD",
"f+	c #4563AE",
"g+	c #6B96CD",
"h+	c #6078AC",
"i+	c #8E5F65",
"j+	c #C88752",
"k+	c #CBB061",
"l+	c #80BA78",
"m+	c #B8E0C5",
"n+	c #D4EBD9",
"o+	c #C0E4CB",
"p+	c #6CB267",
"q+	c #DFA15C",
"r+	c #EE9656",
"s+	c #FED46D",
"t+	c #EE9151",
"u+	c #E08B40",
"v+	c #DB8D3E",
"w+	c #AD7570",
"x+	c #A5B4C3",
"y+	c #C5DDF3",
"z+	c #C6DEF3",
"A+	c #C1DBF1",
"B+	c #6C8CC4",
"C+	c #77A4D4",
"D+	c #91C2E4",
"E+	c #D4E4F0",
"F+	c #CACACA",
"G+	c #9592A7",
"H+	c #4261AD",
"I+	c #5581C1",
"J+	c #7EA4D3",
"K+	c #BFD7EE",
"L+	c #9088A2",
"M+	c #A46451",
"N+	c #D9A65E",
"O+	c #98B266",
"P+	c #72C48D",
"Q+	c #CAAC5F",
"R+	c #E98B51",
"S+	c #FED26C",
"T+	c #F5AF5D",
"U+	c #E07F3D",
"V+	c #DF9540",
"W+	c #B4725D",
"X+	c #D1D2DA",
"Y+	c #97A7B6",
"Z+	c #C4DDF2",
"`+	c #C2DCF2",
" @	c #92ACD8",
".@	c #688CC6",
"+@	c #75A2D3",
"@@	c #8ABEE3",
"#@	c #8BC0E4",
"$@	c #749FCF",
"%@	c #7286BF",
"&@	c #517BBD",
"*@	c #618BC6",
"=@	c #C0D9F1",
"-@	c #C7DFF4",
";@	c #9CB2D2",
">@	c #865D67",
",@	c #D4995A",
"'@	c #BBB162",
")@	c #9DAF5F",
"!@	c #E49356",
"~@	c #FBC567",
"{@	c #FDD06B",
"]@	c #E58243",
"^@	c #C0764B",
"/@	c #D5CFD8",
"(@	c #9FA8B2",
"_@	c #B6D2EC",
":@	c #B5D2ED",
"<@	c #82A1D2",
"[@	c #678CC6",
"}@	c #7FB0DB",
"|@	c #8CBDE1",
"1@	c #8BBEE3",
"2@	c #76A2D3",
"3@	c #6380B3",
"4@	c #7D8FA6",
"5@	c #305C97",
"6@	c #4B71B6",
"7@	c #5582C1",
"8@	c #9EBEE1",
"9@	c #AAC4E2",
"0@	c #7A6177",
"a@	c #CF9459",
"b@	c #E3B364",
"c@	c #E48852",
"d@	c #FBC868",
"e@	c #F2A859",
"f@	c #E19140",
"g@	c #CE7D3B",
"h@	c #CFB9BD",
"i@	c #829FCB",
"j@	c #6584C2",
"k@	c #6992CA",
"l@	c #85B7DF",
"m@	c #8CBEE2",
"n@	c #7099CB",
"o@	c #6C86B3",
"p@	c #8896AA",
"q@	c #ABB2B7",
"r@	c #8E9AA1",
"s@	c #168D7B",
"t@	c #4FA9C5",
"u@	c #446BB0",
"v@	c #4C79BC",
"w@	c #7DA3D2",
"x@	c #BDD6EE",
"y@	c #867890",
"z@	c #C58A5B",
"A@	c #EAC38F",
"B@	c #E48F5F",
"C@	c #E29D58",
"D@	c #DE9442",
"E@	c #D19E8C",
"F@	c #9CA7B1",
"G@	c #8EA9C8",
"H@	c #729ED0",
"I@	c #8ABFE3",
"J@	c #82B4DC",
"K@	c #658AC1",
"L@	c #6A7EA8",
"M@	c #9CA6B2",
"N@	c #ABB1B5",
"O@	c #B5B9BD",
"P@	c #B0B2B3",
"Q@	c #99A4AC",
"R@	c #24988C",
"S@	c #4ABEC9",
"T@	c #8771A1",
"U@	c #5063A7",
"V@	c #4E78BC",
"W@	c #648EC7",
"X@	c #BED8F0",
"Y@	c #908EA9",
"Z@	c #B57D66",
"`@	c #E7BB7E",
" #	c #E2A24E",
".#	c #DB9D6A",
"+#	c #9DA8B2",
"@#	c #9AACC0",
"##	c #8BBDE1",
"$#	c #88BDE2",
"%#	c #719DCF",
"&#	c #6181B8",
"*#	c #707FA5",
"=#	c #9FA8B0",
"-#	c #B0B6BA",
";#	c #ACB1B4",
">#	c #B7B8BA",
",#	c #9EA6AE",
"'#	c #394FA0",
")#	c #209588",
"!#	c #54B8C6",
"~#	c #CD94B6",
"{#	c #C08BB0",
"]#	c #6166A4",
"^#	c #5078BB",
"/#	c #527FBF",
"(#	c #A5C4E5",
"_#	c #C9E0F5",
":#	c #657CAF",
"<#	c #B67663",
"[#	c #C06D3B",
"}#	c #9E95AF",
"|#	c #93A6B9",
"1#	c #7EA5D3",
"2#	c #6185BD",
"3#	c #647BAB",
"4#	c #8592AA",
"5#	c #A9B1B5",
"6#	c #AEB2B5",
"7#	c #B7B9BB",
"8#	c #B0B2B4",
"9#	c #C4C6C7",
"0#	c #B3BAC1",
"a#	c #6B81A9",
"b#	c #2B5A8F",
"c#	c #46A3B7",
"d#	c #D6A1BF",
"e#	c #E2BDD0",
"f#	c #B27EA8",
"g#	c #4DA3C2",
"h#	c #4D76B8",
"i#	c #4E7BBD",
"j#	c #82A7D4",
"k#	c #698FC4",
"l#	c #B0BED5",
"m#	c #A1A7C1",
"n#	c #759CD0",
"o#	c #556BA5",
"p#	c #8593AD",
"q#	c #A4AEB5",
"r#	c #B0B4B7",
"s#	c #BBBEC1",
"t#	c #B6B7B8",
"u#	c #B5B7B8",
"v#	c #C9CCCD",
"w#	c #A8B2C6",
"x#	c #6F84B0",
"y#	c #739CC0",
"z#	c #95CFD3",
"A#	c #17866F",
"B#	c #1C9089",
"C#	c #A17FA7",
"D#	c #DEB6CB",
"E#	c #8180A6",
"F#	c #55C4CE",
"G#	c #51B4C8",
"H#	c #4673B3",
"I#	c #4F79BC",
"J#	c #90ABD0",
"K#	c #B2C2DA",
"L#	c #84A9D6",
"M#	c #6082C1",
"N#	c #8F9AAA",
"O#	c #AFB5B9",
"P#	c #B3B6B8",
"Q#	c #C2C3C4",
"R#	c #B8BABB",
"S#	c #C0C1C2",
"T#	c #BDC3C9",
"U#	c #8290B5",
"V#	c #607DAF",
"W#	c #7FACC9",
"X#	c #80C5C1",
"Y#	c #5FAAA2",
"Z#	c #649796",
"`#	c #0E8472",
" $	c #6A809A",
".$	c #6883A6",
"+$	c #50C0CB",
"@$	c #56C5CF",
"#$	c #55C1CD",
"$$	c #447BB3",
"%$	c #889BC7",
"&$	c #ADBFD9",
"*$	c #5884C3",
"=$	c #4C69AF",
"-$	c #A3AAAF",
";$	c #C1C2C4",
">$	c #B3B5B6",
",$	c #C7C8C9",
"'$	c #ADB5C0",
")$	c #6E81AD",
"!$	c #6588B7",
"~$	c #80B9C6",
"{$	c #61AEA5",
"]$	c #599993",
"^$	c #7D9F9F",
"/$	c #9EA5AB",
"($	c #899399",
"_$	c #289EA0",
":$	c #49BBC7",
"<$	c #44B8C4",
"[$	c #4A95BC",
"}$	c #6B82BB",
"|$	c #5380C0",
"1$	c #445FA8",
"2$	c #A1A8AD",
"3$	c #B2B9BD",
"4$	c #BEC2C5",
"5$	c #A0ABBF",
"6$	c #677FAC",
"7$	c #7199C0",
"8$	c #71B7B7",
"9$	c #4C9D92",
"0$	c #639591",
"a$	c #9DA8AE",
"b$	c #A1A7AC",
"c$	c #A0A3A7",
"d$	c #9B9D9F",
"e$	c #8F9FA3",
"f$	c #249C98",
"g$	c #3FB4C1",
"h$	c #3DB3C0",
"i$	c #54C4CE",
"j$	c #50AEC6",
"k$	c #446BAF",
"l$	c #405CA9",
"m$	c #8292AF",
"n$	c #7083AF",
"o$	c #6687B3",
"p$	c #7BADC5",
"q$	c #5EB0A6",
"r$	c #409285",
"s$	c #6F9895",
"t$	c #9CA3A8",
"u$	c #9CA2A6",
"v$	c #9FA3A5",
"w$	c #AFB0B2",
"x$	c #A5A6A8",
"y$	c #A2A3A4",
"z$	c #9CA5A9",
"A$	c #097B62",
"B$	c #1C938C",
"C$	c #38AFBD",
"D$	c #38B0BE",
"E$	c #4BBDC9",
"F$	c #52BDCB",
"G$	c #3A80B0",
"H$	c #4289A4",
"I$	c #72B8B7",
"J$	c #4CA194",
"K$	c #50948A",
"L$	c #839D9E",
"M$	c #A4A9AE",
"N$	c #9A9EA1",
"O$	c #9EA0A3",
"P$	c #A6A7A9",
"Q$	c #AEAFB0",
"R$	c #A3A4A5",
"S$	c #B3B5B8",
"T$	c #8EABA9",
"U$	c #338878",
"V$	c #138B7E",
"W$	c #32A9B2",
"X$	c #40B5C2",
"Y$	c #3FB5C2",
"Z$	c #45B9C5",
"`$	c #39B0BE",
" %	c #1D8E83",
".%	c #7B9D9C",
"+%	c #A6AEB3",
"@%	c #A2A5A7",
"#%	c #ADAEB0",
"$%	c #A4A5A7",
"%%	c #A2A3A5",
"&%	c #A0A1A2",
"*%	c #AFB2B5",
"=%	c #99ADAF",
"-%	c #58998E",
";%	c #147D68",
">%	c #1F9793",
",%	c #48BBC6",
"'%	c #46B9C5",
")%	c #38AFBC",
"!%	c #327D71",
"~%	c #A1A7AB",
"{%	c #A0A2A5",
"]%	c #AEAFB1",
"^%	c #9FA0A1",
"/%	c #A0A5AA",
"(%	c #789D9C",
"_%	c #2E8274",
":%	c #158D81",
"<%	c #37AEBB",
"[%	c #31A9B1",
"}%	c #458479",
"|%	c #A2A5A8",
"1%	c #A1AAAE",
"2%	c #639692",
"3%	c #1D7E6C",
"4%	c #0D8573",
"5%	c #2CA4A9",
"6%	c #3B8074",
"7%	c #A6AEB4",
"8%	c #8FABAD",
"9%	c #478C82",
"0%	c #0F7C65",
"a%	c #047E66",
"b%	c #0F7C66",
"c%	c #187D69",
"                . + @ #                                         ",
"              $ % & * = - ;                                     ",
"            > , ' ) ! ~ { ] ^ /                                 ",
"          ( _ : < [ } | 1 2 3 4 5 6                             ",
"          7 8 9 0 a b c d e f 4 4 g h i                         ",
"        j k l m n o p q r s t 4 u v w x y                       ",
"        z A B C D E F G H q I J K L M N O P Q                   ",
"      R S T U V W C X Y Z `  .q ..+.@.#.$.%.&.*.=.              ",
"      -.;.>.,.W V W '.).!.~.{.]. .^./.(._.:.<.[.}.|.            ",
"    1.2.3.4.5.6.W W D 7.8.9.0.a.b.c.d.e.f.g.h.i.j.k.l.          ",
"    m.n.o.p.7.7.q.W W D r.s.t.u.v.w.x.y.z.A.B.C.D.E.k.F.        ",
"  G.H.I.J.K.).7.q.W V V L.M.N.O.P.Q.R.S.T.B.U.V.W.X.E.k.Y.Z.    ",
"  `. +.+++@+#+7.$+W W %+&+*+=+-+;+>+H ,+'+U.)+!+V.~+{+E.k.]+^+  ",
"  /+(+_+:+<+[+}+7.'.D |+1+2+3+4+5+6+7+8+B.9+0+a+b+V.c+d+E.k.e+  ",
"  f+g+h+i+j+k+l+m+n+o+p+q+r+s+t+u+v+w+B.x+y+z+y+A+B+C+D+E+F+G+  ",
"  H+I+J+K+L+M+N+O+E P+Q+R+S+T+U+V+W+X+Y+Z+0+`+ @.@+@@@#@$@%@    ",
"    &@*@=@-@;@>@,@'@)@!@~@{@]@H ^@/@(@_@:@<@[@}@|@1@2@3@4@      ",
"    5@6@7@8@-@9@0@a@b@c@d@e@f@g@h@U.i@j@k@l@m@|@n@o@p@q@r@      ",
"    s@t@u@v@w@-@x@y@z@A@B@C@D@E@F@G@H@I@I@J@K@L@M@N@O@P@Q@      ",
"    R@S@T@U@V@W@X@z+Y@Z@`@ #.#+#@###$#%#&#*#=#-#;#k.>#>#,#'#    ",
"    )#!#~#{#]#^#/#(#_#:#<#[#}#|#1#2#3#4#5#N@6#7#B.8#9#0#a#b#    ",
"      c#d#e#f#g#h#i#j#k#l#m#n#o#p#q#r#s#E.t#u#B.v#w#x#y#z#A#    ",
"      B#C#D#E#F#G#H#I#J#K#L#M#N#O#P#Q#R#u#S#T#U#V#W#X#Y#Z#      ",
"        `# $.$+$@$#$$$%$&$*$=$-$-#;$>$,$'$)$!$~${$]$^$/$($      ",
"            _$:$<$F#@$[$}$|$1$2$3$4$5$6$7$8$9$0$a$b$c$d$e$      ",
"              f$<$g$h$i$j$k$l$m$n$o$p$q$r$s$t$u$v$w$x$y$z$A$    ",
"                B$C$D$<$E$F$G$H$I$J$K$L$M$N$O$P$Q$R$S$T$U$      ",
"                  V$W$X$Y$Z$`$ %.%+%@%#%$%%%&%*%=%-%;%          ",
"                      >%,%'%)%!%~%{%]%Q$^%/%(%_%                ",
"                        :%<%[%}%u$|%P@1%2%3%                    ",
"                          4%5%6%7%8%9%0%                        ",
"                            a%b%c%                              "};
