/* XPM */
static const char * ico_djvu_xpm[] = {
"32 31 256 2",
"  	c None",
". 	c #FFFFFF",
"+ 	c #FFFF00",
"@ 	c #FF00FF",
"# 	c #FF0000",
"$ 	c #00FFFF",
"% 	c #00FF00",
"& 	c #0000FF",
"* 	c #000000",
"= 	c #020202",
"- 	c #3B2425",
"; 	c #774951",
"> 	c #814E82",
", 	c #613C64",
"' 	c #C0BAC1",
") 	c #372644",
"! 	c #897599",
"~ 	c #693F96",
"{ 	c #B5AFBB",
"] 	c #E8E5EB",
"^ 	c #C6B5DA",
"/ 	c #D5C9E3",
"( 	c #AAA3B2",
"_ 	c #DED8E5",
": 	c #776095",
"< 	c #A78EC8",
"[ 	c #A58EC3",
"} 	c #B7A3D1",
"| 	c #C0AED6",
"1 	c #BFB1D0",
"2 	c #9F96AA",
"3 	c #6B499C",
"4 	c #553D78",
"5 	c #7656A4",
"6 	c #7F5EAC",
"7 	c #765E99",
"8 	c #7F699E",
"9 	c #786495",
"0 	c #947BB6",
"a 	c #A087C2",
"b 	c #B49FD0",
"c 	c #B09CCB",
"d 	c #B9A7D3",
"e 	c #BEADD6",
"f 	c #B4A6C8",
"g 	c #C9BBDC",
"h 	c #C7BBD8",
"i 	c #CFC3E0",
"j 	c #C4BDCE",
"k 	c #E4DCEF",
"l 	c #B8B2C0",
"m 	c #D1CED5",
"n 	c #5F408D",
"o 	c #896CB6",
"p 	c #765E9C",
"q 	c #79619E",
"r 	c #77609C",
"s 	c #765F9A",
"t 	c #755E99",
"u 	c #7E66A3",
"v 	c #8A70B0",
"w 	c #826AA7",
"x 	c #7B6A94",
"y 	c #B5A6CB",
"z 	c #8F84A0",
"A 	c #C1B3D7",
"B 	c #EFEBF5",
"C 	c #D8D6DB",
"D 	c #452678",
"E 	c #614D83",
"F 	c #705A97",
"G 	c #6F5995",
"H 	c #6B5690",
"I 	c #69548D",
"J 	c #725B98",
"K 	c #6B568F",
"L 	c #6A558E",
"M 	c #745D9A",
"N 	c #6D5892",
"O 	c #735D99",
"P 	c #725C97",
"Q 	c #6F5A94",
"R 	c #755F9B",
"S 	c #7A63A0",
"T 	c #78629D",
"U 	c #8876A7",
"V 	c #9689AD",
"W 	c #9C8FB3",
"X 	c #A99BC1",
"Y 	c #AEA0C5",
"Z 	c #A397B8",
"` 	c #C7C4CC",
" .	c #5D4886",
"..	c #664F90",
"+.	c #624D8B",
"@.	c #5F4C84",
"#.	c #695491",
"$.	c #5D4A80",
"%.	c #6B5693",
"&.	c #6A5592",
"*.	c #67538E",
"=.	c #645089",
"-.	c #614E86",
";.	c #6C5794",
">.	c #65518A",
",.	c #635088",
"'.	c #69558F",
").	c #66538B",
"!.	c #68548C",
"~.	c #655289",
"{.	c #645187",
"].	c #705B96",
"^.	c #6E6089",
"/.	c #73648E",
"(.	c #7A708D",
"_.	c #958CA6",
":.	c #ABA3BA",
"<.	c #4D367C",
"[.	c #4C3B71",
"}.	c #57457E",
"|.	c #5F4B88",
"1.	c #544379",
"2.	c #5A487F",
"3.	c #59477D",
"4.	c #5E4C83",
"5.	c #675490",
"6.	c #E1E0E3",
"7.	c #483770",
"8.	c #45356B",
"9.	c #47376D",
"0.	c #52407C",
"a.	c #4C3C73",
"b.	c #4B3B71",
"c.	c #4A3A6F",
"d.	c #4F3E76",
"e.	c #514077",
"f.	c #4F3F75",
"g.	c #524279",
"h.	c #55447B",
"i.	c #5B4B82",
"j.	c #594D76",
"k.	c #61547F",
"l.	c #8C81A6",
"m.	c #BFBACA",
"n.	c #241842",
"o.	c #312552",
"p.	c #403167",
"q.	c #43346C",
"r.	c #4B3A77",
"s.	c #45356D",
"t.	c #45366E",
"u.	c #4A3A74",
"v.	c #493972",
"w.	c #46376E",
"x.	c #4F3E7A",
"y.	c #4A3A72",
"z.	c #483970",
"A.	c #4D3D77",
"B.	c #493A71",
"C.	c #4D3D75",
"D.	c #4C4169",
"E.	c #5B4E7C",
"F.	c #6B5F8C",
"G.	c #655A83",
"H.	c #31225F",
"I.	c #2D224D",
"J.	c #342857",
"K.	c #372A5B",
"L.	c #392C5E",
"M.	c #3D2F64",
"N.	c #3A2D60",
"O.	c #3E3166",
"P.	c #3C2F62",
"Q.	c #44356E",
"R.	c #413369",
"S.	c #473871",
"T.	c #43356B",
"U.	c #423469",
"V.	c #413469",
"W.	c #45376D",
"X.	c #46396C",
"Y.	c #4F4373",
"Z.	c #746994",
"`.	c #70668F",
" +	c #7B709A",
".+	c #CCCAD2",
"++	c #433476",
"@+	c #41356B",
"#+	c #42366C",
"$+	c #483C71",
"%+	c #5C5181",
"&+	c #665B89",
"*+	c #6A608B",
"=+	c #6E648E",
"-+	c #6C638C",
";+	c #2B2154",
">+	c #69608A",
",+	c #6B628C",
"'+	c #33276C",
")+	c #3B2E74",
"!+	c #E8E4F9",
"~+	c #241963",
"{+	c #2B2265",
"]+	c #18155D",
"^+	c #ECECEE",
"/+	c #F4F4F5",
"(+	c #E7E0D2",
"_+	c #FFA504",
":+	c #FF9C01",
"<+	c #FFA40D",
"[+	c #FFA712",
"}+	c #FFA516",
"|+	c #D09436",
"1+	c #CC9641",
"2+	c #FF9B01",
"3+	c #FF9901",
"4+	c #FF9902",
"5+	c #FA9602",
"6+	c #EF9002",
"7+	c #E98D02",
"8+	c #FF9B05",
"9+	c #FF9D06",
"0+	c #FE9E0D",
"a+	c #CE800C",
"b+	c #FF9F0F",
"c+	c #A8670A",
"d+	c #FFA211",
"e+	c #553607",
"f+	c #FEA116",
"g+	c #FFA41B",
"h+	c #FFA621",
"i+	c #FFA826",
"j+	c #D08B21",
"k+	c #FFAA2C",
"l+	c #FFAE34",
"m+	c #D0912F",
"n+	c #FFB23F",
"o+	c #FFB74A",
"p+	c #EDAA46",
"q+	c #D0963D",
"r+	c #FFBA55",
"s+	c #BD8B3F",
"t+	c #FFC46A",
"u+	c #FEC775",
"v+	c #FFCE84",
"w+	c #FFD089",
"x+	c #D0AB73",
"y+	c #FFD38F",
"z+	c #6A481B",
"A+	c #E79B41",
"B+	c #8D571B",
"C+	c #7F4E19",
"D+	c #9C866E",
"E+	c #E7CCB0",
"F+	c #E6B68A",
"G+	c #51332C",
"            / i f ' /+l m k c A A A d y Z W l.U  +Z.=+F.&+%+l.  ",
"            i A A W .+^+( ] i 0 u S S T r 7 : P Q N L !.{.$.=+  ",
"            h e | d V C k 2 . A v T r s t O G Q N K !.~.-.2.=+  ",
"            .+g d e b z (+C :.. c u s t P ].Q N H I ).,.E 3.`.  ",
"            i . h B A a z ^+l { . a q P Q Q %.H !.*.=.-.$.h.=+  ",
"            j C _ ` /+b 0 2 ^+:.m k v J G N H #.!.>.,.4.$.1.-+  ",
"            y z . j .+B a v ( ^+W ] i 6 ;.H !.I >.,.@.i.3.g.,+  ",
"            d 0 2 . l C k 0 8 ' ] z . d 5 #.*.>.,.-.E 2.3.f.,+  ",
"            f w U 2 . :.C g o : ` _ 2 . a 3 3 +.|.@.2.3.h.f.*+  ",
"            y S u w { . { ^+} 6 8 6.h ( . 6 ~ > n  . .}.1.a.*+  ",
"            c S T S 8 m.C l ^+a 3 ! ] :.E+F+A+h+z+<.}.h.e.b.*+  ",
"            f S T r q 9 C m { B o ! E+. u+o+l+g+c+H.}.g.f.c.>+  ",
"            c q p R O J Q 6.l ` k E+E+. u+n+k+}+a+n.0.e.[.9.>+  ",
"            Y R p M O ].G x . m.m.. . (+p+l+h+b+6+G+r.d.a.s.>+  ",
"            X p O J G G %.&.x . j (.D+s+l+i+b+9+5+C+'+a.v.#+>+  ",
"            Y O O F G %.#.5.*.^.(+!+u+k+i+f+0+:+_+a+{+y.S.V.>+  ",
"            X J ;.G %.&...*.+.+.4 _.x+g+d+_+_+5+a+B+;+S.8.p.>+  ",
"            X G ;.%.'.5.*.+.+.|. .D , 9+7+c+C+G+) ]+'+t.U.M.^.  ",
"  y+y+y+w+w+w+w+w+w+w+w+w+w+w+w+w+z+~+; - ) H.)+++S.s.U.M.N.>+  ",
"  [+= = y+v+u+t+= o+= k+g+0+2+2+}+z+~+0.g.x.A.u.S.s.q.O.N.K.*+  ",
"  [+= v+= t+r+o+= k+= b+8+3+3+2+0+z+]+0.d.A.u.w.T.p.P.L.J.P.[   ",
"  [+= t+= o+= l+= d+= 3+= 3+= 2+f+z+~+A.C.v.W.p.P.K.J.o.Y.a  +  ",
"  [+= r+= l+= f+= 4+= 3+= 3+= 2+0+z+]+r.7.W.3.k.j.D.>+[ < 4.C   ",
"  [+= o+= k+= 0+4+= 3+3+= 3+= 2+f+z+]+S.Q.p.Z _ / ^ } < >..+    ",
"  [+= = l+i+= d+[+= <+<+9+= = _+d+z+]+q.O.N.X / ^ } < N m.      ",
"  |+|+|+|+= |+|+1+q+|+m+m+j+j+a+a+e+~+O.P.J.A ^ } < r :.        ",
"            V g.d.d.r.a.y.z.7.t.q.R.M.L.J.J.| } < S _.          ",
"            W C.a.b.B.z.w.s.T.R.p.P.L.J.J.J.} < w !             ",
"            l.[.c.z.9.8.T.V.p.M.N.K.J.o.I.X.[ v ^.              ",
"            V z.9.8.8.U.U.O.P.N.K.J.o.I.I.i.v G.                ",
"            X  +F.%+e.$+#+#+#+#+#+#+T.@+S.w E.                  "};
