/* XPM */
static const char * modify_xpm[] = {
"16 15 39 1",
" 	c None",
".	c #FFFFFF",
"+	c #655B4D",
"@	c #949494",
"#	c #939393",
"$	c #929292",
"%	c #919191",
"&	c #9A9A9A",
"*	c #BBBBBB",
"=	c #C7C7C7",
"-	c #F2AC47",
";	c #D8D8D8",
">	c #C79449",
",	c #9D7B4B",
"'	c #C4C4C4",
")	c #E6E598",
"!	c #B6B6B6",
"~	c #FDFDFD",
"{	c #FBFBFB",
"]	c #BFBB81",
"^	c #EFEFEF",
"/	c #F3F3F3",
"(	c #F4F4F4",
"_	c #99926B",
":	c #EDEDED",
"<	c #EEEEEE",
"[	c #868686",
"}	c #F7F7F7",
"|	c #F1F1F1",
"1	c #E9E9E9",
"2	c #E3E3E3",
"3	c #EBEBEB",
"4	c #E1E1E1",
"5	c #8D8D8D",
"6	c #8A8A8A",
"7	c #888888",
"8	c #878787",
"9	c #8C8C8C",
"0	c #8B8B8B",
"           .++. ",
"  @@#$$%&*=+--+.",
" @;.......+-->,+",
"@;.......+-->>,+",
"#.......+-->>,+.",
"$......+-->>,+' ",
"$.....+))>>,+.! ",
"%...~{+)]],+^.% ",
"%..{/(++]_+:<{[ ",
"@;}|12++++3^/;@ ",
" @;....4....;@  ",
"  @555..678[@   ",
"     9.6        ",
"     06         ",
"     6          "};
