/* XPM */
static const char * pause_xpm[] = {
"16 16 75 1",
" 	c None",
".	c #254BA3",
"+	c #254CA4",
"@	c #284EA6",
"#	c #6793DF",
"$	c #6895E3",
"%	c #5F8DDF",
"&	c #274FA8",
"*	c #274EA5",
"=	c #618EDE",
"-	c #6290E2",
";	c #5A89DE",
">	c #2951AA",
",	c #4B7FDC",
"'	c #5B8BE1",
")	c #2852AD",
"!	c #2851A9",
"~	c #618FE1",
"{	c #4379DA",
"]	c #5687E0",
"^	c #2853AD",
"/	c #6290E3",
"(	c #4077D9",
"_	c #5284E1",
":	c #2956B1",
"<	c #5B8AE1",
"[	c #3870D7",
"}	c #4C7FE0",
"|	c #3E75D9",
"1	c #497DE0",
"2	c #2A59B5",
"3	c #4F82DF",
"4	c #306AD5",
"5	c #3E74DD",
"6	c #3D74D8",
"7	c #457ADF",
"8	c #2C5DBA",
"9	c #3C72DC",
"0	c #2561D2",
"a	c #336BDB",
"b	c #2B5CB9",
"c	c #487CE0",
"d	c #2E68D4",
"e	c #3971DB",
"f	c #2D60BE",
"g	c #2C5FBC",
"h	c #346CDB",
"i	c #3F76DC",
"j	c #2E64C3",
"k	c #2D61C0",
"l	c #457ADC",
"m	c #2F67C7",
"n	c #2663D3",
"o	c #4B81DE",
"p	c #316ACB",
"q	c #2F66C5",
"r	c #477DDE",
"s	c #2E6ED8",
"t	c #578FE4",
"u	c #326ECF",
"v	c #3068C8",
"w	c #5087E1",
"x	c #397DE0",
"y	c #65A1EC",
"z	c #3371D4",
"A	c #3069C9",
"B	c #568EE3",
"C	c #66A2ED",
"D	c #6FAFF3",
"E	c #3474D8",
"F	c #306ACB",
"G	c #326DCF",
"H	c #3370D3",
"I	c #3474D7",
"J	c #3576DA",
"                ",
"  ...++  ...++  ",
"  @#$%&  *=-;&  ",
"  >$,')  !~{])  ",
"  ^/(_:  ^<[}:  ",
"  :'|12  :3452  ",
"  2_678  290a8  ",
"  bcdef  ba0ef  ",
"  gh0ij  ga0ij  ",
"  ke0lm  ke0lm  ",
"  jinop  jinop  ",
"  qrstu  qrstu  ",
"  vwxyz  vwxyz  ",
"  ABCDE  ABCDE  ",
"  FGHIJ  FGHIJ  ",
"                "};
