/* XPM */
static const char *news_question_xpm[] = {
/* width height num_colors chars_per_pixel */
"    16    16      256            2",
/* colors */
"`` c None",
"`. c #b8c6e5",
"`# c #c1cce9",
"`a c #bfcbe9",
"`b c #bac7e6",
"`c c #e0e6f3",
"`d c #f2f3f8",
"`e c #fbfcfe",
"`f c #fcfeff",
"`g c #fbfbfc",
"`h c #f2f3fa",
"`i c #d7e0f2",
"`j c #e9edf7",
"`k c #ffffff",
"`l c #cfe3f7",
"`m c #a0c7ef",
"`n c #99c2ed",
"`o c #93bbea",
"`p c #92b8ea",
"`q c #c5d9f4",
"`r c #e3e9f4",
"`s c #b1c1e2",
"`t c #eaeef8",
"`u c #98c2ed",
"`v c #92c0eb",
"`w c #d9e9f8",
"`x c #f2f7fc",
"`y c #eff6fc",
"`z c #cfe0f6",
"`A c #729ee1",
"`B c #84abe3",
"`C c #e2e7f3",
"`D c #cad4ea",
"`E c #d7e0f0",
"`F c #9fc5ee",
"`G c #82b2e9",
"`H c #f3f7fc",
"`I c #9cbbea",
"`J c #98bae9",
"`K c #f2f6fc",
"`L c #f7fafe",
"`M c #4a7bd3",
"`N c #7fa0de",
"`O c #c0cce9",
"`P c #fafafc",
"`Q c #e0eefa",
"`R c #4f8edc",
"`S c #b7d1f2",
"`T c #feffff",
"`U c #77a3e1",
"`V c #306bce",
"`W c #255ec7",
"`X c #7299dd",
"`Y c #8aa9e2",
"`Z c #1c4dc0",
"`0 c #ced9ee",
"`1 c #eff0f3",
"`2 c #b6c4e2",
"`3 c #9cc0eb",
"`4 c #417ed5",
"`5 c #4c83d7",
"`6 c #5487d8",
"`7 c #3b72cf",
"`8 c #3167cb",
".` c #265ac5",
".. c #99b5e6",
".# c #799adc",
".a c #0c3bb7",
".b c #7696d7",
".c c #fffaf3",
".d c #ccd7ee",
".e c #75a3e1",
".f c #3974d0",
".g c #3b72d0",
".h c #3369cb",
".i c #2e63c9",
".j c #295cc6",
".k c #9cb6e6",
".l c #d5e0f4",
".m c #2c5ac4",
".n c #1241ba",
".o c #5078cc",
".p c #f8f3ed",
".q c #bac5e1",
".r c #ced7ee",
".s c #6d97dc",
".t c #2d66ca",
".u c #3166ca",
".v c #2b5ec7",
".w c #2354c1",
".x c #9fb7e7",
".y c #b7c9eb",
".z c #2b59c2",
".A c #1949bc",
".B c #1747bc",
".C c #4d75ca",
".D c #ede6e1",
".E c #b6c2dd",
".F c #c2ceea",
".G c #87a7e2",
".H c #2357c4",
".I c #295ac5",
".J c #1e4fbf",
".K c #2f5dc6",
".L c #f4f8fe",
".M c #e5ebf8",
".N c #2554c1",
".O c #1646bb",
".P c #1f4fbf",
".Q c #1645bd",
".R c #6b89cb",
".S c #ddd8d5",
".T c #afbcdc",
".U c #b2c1e3",
".V c #fcfcfe",
".W c #d1def4",
".X c #2455c2",
".Y c #1d4cbf",
".Z c #1c4abd",
".0 c #2857c2",
".1 c #809fde",
".2 c #678bd7",
".3 c #1a4abd",
".4 c #1e4ebf",
".5 c #1c4cbf",
".6 c #a6b1ca",
".7 c #c4c4c9",
".8 c #a9badd",
"#` c #d9e1f0",
"#. c #7a9ada",
"## c #1141ba",
"#a c #1b4bbd",
"#b c #1f4ebf",
"#c c #8eaae2",
"#d c #819fde",
"#e c #1c4cbd",
"#f c #1545bf",
"#g c #6583c5",
"#h c #c1bdbf",
"#i c #acb5cc",
"#j c #adbde1",
"#k c #eff0f6",
"#l c #fffffa",
"#m c #698bd3",
"#n c #1646bc",
"#o c #1a4abf",
"#p c #c9d8f3",
"#q c #b5c7ee",
"#r c #1646bd",
"#s c #1849bf",
"#t c #5e7ec1",
"#u c #b7b4b7",
"#v c #a6aab8",
"#w c #e9edf0",
"#x c #fcf8f0",
"#y c #b1bfde",
"#z c #597ecb",
"#A c #4a73c9",
"#B c #4972c7",
"#C c #5376c2",
"#D c #8e9cc0",
"#E c #b1afb1",
"#F c #a0a4b4",
"#G c #a4b2d1",
"#H c #b0bfe1",
"#I c #d0d7e6",
"#J c #e6e5e3",
"#K c #e6e0dc",
"#L c #c7c7ce",
"#M c #bfbdc4",
"#N c #c0bcbc",
"#O c #adafb7",
"#P c #9da4b8",
"#Q c #b2c0de",
"#R c #b2bfda",
"#S c #b1bcd5",
"#T c #acb7d0",
"#U c #a6b4d1",
"#V c #0012db",
"#W c #f45a34",
"#X c #ae7077",
"#Y c #ff77f8",
"#Z c #ffffff",
"#0 c #f4b052",
"#1 c #b1c677",
"#2 c #0177f4",
"#3 c #000000",
"#4 c #12da60",
"#5 c #dae400",
"#6 c #000012",
"#7 c #000000",
"#8 c #150000",
"a` c #ec0000",
"a. c #457ffd",
"a# c #000000",
"aa c #019810",
"ab c #d9cc00",
"ac c #800012",
"ad c #c01000",
"ae c #12db4c",
"af c #5a3400",
"ag c #5877f4",
"ah c #77f894",
"ai c #ffffff",
"aj c #67f9ff",
"ak c #0077f4",
"al c #000000",
"am c #f466e5",
"an c #986077",
"ao c #0077e4",
"ap c #000000",
"aq c #9dd5ec",
"ar c #ffff01",
"as c #ec0000",
"at c #019dd5",
"au c #000018",
"av c #000000",
"aw c #e40000",
"ax c #0012da",
"ay c #000040",
"az c #000000",
"aA c #c80000",
"aB c #0012da",
"aC c #000000",
"aD c #000000",
"aE c #000000",
"aF c #000000",
"aG c #000000",
"aH c #000c00",
"aI c #020000",
"aJ c #000000",
"aK c #f40101",
"aL c #ec0077",
"aM c #987ffd",
"aN c #000000",
"aO c #000000",
"aP c #000200",
"aQ c #a00000",
"aR c #021a00",
"aS c #1d2c20",
"aT c #ffff00",
"aU c #000000",
"aV c #000000",
"aW c #1d2c20",
"aX c #000500",
"aY c #200000",
"aZ c #0012db",
"a0 c #e49a71",
"a1 c #338377",
"a2 c #2177f4",
"a3 c #77e492",
"a4 c #0001c4",
"a5 c #db4400",
"a6 c #4c0012",
"a7 c #0012db",
"a8 c #000008",
/* pixels */
"```````````.`.`#`a`b`b``````````",
"```````b`c`d`e`f`e`g`h`i`i``````",
"`````b`j`k`l`m`n`o`p`q`k`r`s````",
"```b`t`k`u`v`w`x`y`z`A`B`k`C`D``",
"```E`k`F`G`k`H`I`J`K`L`M`N`k`D``",
"`O`P`Q`R`S`T`U`V`W`X`k`Y`Z`0`1`2",
"`O`k`3`4`5`6`7`8.`..`k.#.a.b.c`2",
".d`k.e.f.g.h.i.j.k`k.l.m.n.o.p.q",
".r`k.s.t.u.v.w.x`k.y.z.A.B.C.D.E",
".F`k.G.H.I.J.K.L.M.N.O.P.Q.R.S.T",
".U.V.W.X.Y.Z.0.1.2.3.4.5.P.6.7.8",
"``#``k#.###a#b#c#d#e#e#f#g#h#i``",
"``#j#k#l#m#n#o#p#q#r#s#t#u#v.8``",
"````.U#w#x#y#z#A#B#C#D#E#F#G````",
"``````#H#I#J#K#L#M#N#O#P.8``````",
"``````````#Q#R#S#T#U.8``````````"
};
