/* XPM */
static const char *news_sticky_xpm[] = {
/* width height num_colors chars_per_pixel */
"    16    16      256            2",
/* colors */
"`` c None",
"`. c #96aad8",
"`# c #aabae0",
"`a c #97aad8",
"`b c #cfd9ee",
"`c c #ffffff",
"`d c #e0e6f3",
"`e c #91a6d7",
"`f c #d0d9ee",
"`g c #d3eafa",
"`h c #c6e0f6",
"`i c #dee5f4",
"`j c #99add8",
"`k c #d0daee",
"`l c #bbdcf6",
"`m c #8fc5f0",
"`n c #79b0ea",
"`o c #93bceb",
"`p c #dae2f0",
"`q c #93a7d7",
"`r c #d4ddee",
"`s c #b6d7f6",
"`t c #4a92e0",
"`u c #daeafa",
"`v c #d0e0f7",
"`w c #2864c9",
"`x c #82a4e1",
"`y c #fffffe",
"`z c #d7dce9",
"`A c #97aad7",
"`B c #d5ddef",
"`C c #b2d4f3",
"`D c #458adc",
"`E c #3e7ed5",
"`F c #5589d8",
"`G c #4879d0",
"`H c #2154c0",
"`I c #1847bb",
"`J c #7f9ad7",
"`K c #fffef0",
"`L c #c9cfe0",
"`M c #d9e1f2",
"`N c #a7cbef",
"`O c #3b7dd5",
"`P c #316fce",
"`Q c #467bd3",
"`R c #bfd4f2",
"`S c #9fbae7",
"`T c #1945b8",
"`U c #0f37b0",
"`V c #092daa",
"`W c #6d88ca",
"`X c #e5e1da",
"`Y c #b6bccf",
"`Z c #93a7d5",
"`0 c #cbdef6",
"`1 c #3676d3",
"`2 c #2f69cc",
"`3 c #285dc6",
"`4 c #2254c0",
"`5 c #d8e3f6",
"`6 c #cedaf2",
"`7 c #1037af",
"`8 c #0d32ac",
".` c #092eab",
".. c #8797c2",
".# c #c0bbb8",
".a c #98a3c1",
".b c #c5d9f3",
".c c #275dc6",
".d c #1c4abb",
".e c #1741b6",
".f c #cfdcf3",
".g c #c9d5f0",
".h c #0f34ad",
".i c #0f35ad",
".j c #072cad",
".k c #6a7fb4",
".l c #a19e9f",
".m c #8b95b1",
".n c #dae1f2",
".o c #88a6e1",
".p c #103bb4",
".q c #0f35b0",
".r c #0f36af",
".s c #ccd8f2",
".t c #c7d4f0",
".u c #0e33ad",
".v c #0d31ac",
".w c #082dad",
".x c #405eb0",
".y c #9c98a0",
".z c #848899",
".A c #8b9ec7",
".B c #dde2f2",
".C c #728fd5",
".D c #062aa7",
".E c #1036ad",
".F c #dce5f6",
".G c #d7e1f4",
".H c #082dac",
".I c #4362b1",
".J c #a19ea3",
".K c #878a9e",
".L c #d9e1ef",
".M c #6a87ce",
".N c #1a41b5",
".O c #829fdd",
".P c #819edd",
".Q c #1a42b8",
".R c #a39ea1",
".S c #878b9e",
".T c #8b9dc6",
".U c #d9deea",
".V c #fffef2",
".W c #5d7dc6",
".X c #0325a7",
".Y c #0326aa",
".Z c #4865b1",
".0 c #a39fa3",
".1 c #9aafd8",
".2 c #ced1e1",
".3 c #e1ddda",
".4 c #7e91c2",
".5 c #7083b4",
".6 c #9d9aa0",
".7 c #888ea0",
".8 c #8c9ec7",
"#` c #bbbfce",
"#. c #c0bbb7",
"## c #a09c9e",
"#a c #868c9f",
"#b c #98aad5",
"#c c #98a3bd",
"#d c #8b96b4",
"#e c #8e9ec9",
"#f c #000000",
"#g c #970000",
"#h c #77f47c",
"#i c #1d2c18",
"#j c #67e100",
"#k c #7877f4",
"#l c #001513",
"#m c #f467f9",
"#n c #000077",
"#o c #e50000",
"#p c #77f466",
"#q c #000000",
"#r c #6c9c00",
"#s c #8c01a0",
"#t c #01280a",
"#u c #000051",
"#v c #da0c00",
"#w c #020012",
"#x c #000000",
"#y c #0a0008",
"#z c #ae9000",
"#A c #0277f8",
"#B c #000000",
"#C c #9c009a",
"#D c #ec0000",
"#E c #757ffd",
"#F c #017504",
"#G c #12da9c",
"#H c #000000",
"#I c #1a0000",
"#J c #000002",
"#K c #000000",
"#L c #009a00",
"#M c #bc0000",
"#N c #0012d7",
"#O c #12db68",
"#P c #2c2000",
"#Q c #28001d",
"#R c #000002",
"#S c #12d7b0",
"#T c #032c00",
"#U c #4c000c",
"#V c #0012db",
"#W c #f45a34",
"#X c #ae7077",
"#Y c #ff77f8",
"#Z c #ffffff",
"#0 c #f4b052",
"#1 c #b1c677",
"#2 c #0177f4",
"#3 c #000000",
"#4 c #12da60",
"#5 c #dae400",
"#6 c #000012",
"#7 c #000000",
"#8 c #150000",
"a` c #ec0000",
"a. c #457ffd",
"a# c #000000",
"aa c #019810",
"ab c #d9cc00",
"ac c #800012",
"ad c #c01000",
"ae c #12db4c",
"af c #5a3400",
"ag c #5877f4",
"ah c #77f894",
"ai c #ffffff",
"aj c #67f9ff",
"ak c #0077f4",
"al c #000000",
"am c #f466e5",
"an c #986077",
"ao c #0077e4",
"ap c #000000",
"aq c #37eb64",
"ar c #ffff01",
"as c #640000",
"at c #0137eb",
"au c #000018",
"av c #000000",
"aw c #e40000",
"ax c #0012da",
"ay c #000040",
"az c #000000",
"aA c #c80000",
"aB c #0012da",
"aC c #000000",
"aD c #000000",
"aE c #000000",
"aF c #000000",
"aG c #000000",
"aH c #000c00",
"aI c #020000",
"aJ c #000000",
"aK c #f40101",
"aL c #ec0077",
"aM c #9a7ffd",
"aN c #000000",
"aO c #000000",
"aP c #000200",
"aQ c #a20000",
"aR c #021a00",
"aS c #1d2c20",
"aT c #ffff00",
"aU c #000000",
"aV c #000000",
"aW c #1d2c20",
"aX c #000500",
"aY c #200000",
"aZ c #0012db",
"a0 c #e49a71",
"a1 c #338377",
"a2 c #2177f4",
"a3 c #77e492",
"a4 c #0001c4",
"a5 c #db4400",
"a6 c #4c0012",
"a7 c #0012db",
"a8 c #000008",
/* pixels */
"`````````````.`#`#`.````````````",
"```````````a`b`c`c`d`a``````````",
"`````````e`f`c`g`h`c`i`j````````",
"```````a`k`c`l`m`n`o`c`p`a``````",
"`````q`r`c`s`t`u`v`w`x`y`z`A````",
"```a`B`c`C`D`E`F`G`H`I`J`K`L`a``",
"`.`M`c`N`O`P`Q`R`S`T`U`V`W`X`Y`Z",
"`#`c`0`1`2`3`4`5`6`7`8`8.`...#.a",
"`#`c.b.c`4.d.e.f.g.h`8.i.j.k.l.m",
"`..n`c.o.p.q.r.s.t.u.v.w.x.y.z.A",
"```a.B`c.C.D.E.F.G.E.H.I.J.K`a``",
"`````a.L`y.M.N.O.P.Q.x.R.S.T````",
"```````a.U.V.W.X.Y.Z.0.K`a``````",
"````````.1.2.3.4.5.6.7.8````````",
"```````````a#`#.###a`a``````````",
"````````````#b#c#d#e````````````"
};
